<?xml version="1.0" encoding="UTF-8"?><svg id="Layer_1" xmlns="http://www.w3.org/2000/svg" viewBox="0 0 130 38"><defs><style>.cls-1{fill:#1c468a;stroke-width:0px;}</style></defs><path class="cls-1" d="M15.3565,12.0262c-.5412.4735-1.601,1.4883-2.6158,2.4579l-1.15,1.1049c-.9471-.1579-1.8716-.248-2.8413-.248-2.1422,0-4.1266.5863-5.0061,1.5108-.3382.3608-.5186.7216-.4961,1.1275.0225,1.0373,1.2177,1.5559,1.5785,1.7138,1.9167.699,3.5178.4961,5.1865-.6765.9245-.6539,2.052-1.6912,2.9089-2.5256.6765.1579,1.4432.3608,2.2775.6088l.7667.2255c-.9922.9696-2.0069,2.0069-2.954,2.8187l-.0677.0676c-1.3079,1.15-2.255,1.9844-3.6305,2.3001-.9696.2029-1.6461,0-1.8716-.1353-.0225,0-.0451.0451-.0451.0451.7892.6539,1.5334,1.0147,2.8413.902,1.2177-.1127,2.6383-.8794,4.0815-2.2324l1.9618-1.9167,1.3755-1.353,2.7736.8118h.0451c-.0225,0-1.7138,1.6687-1.7138,1.6687l-1.4657,1.4657c-1.5108,1.4657-2.3226,2.2324-3.2246,2.8638-1.4432,1.0373-2.706,1.5785-3.8109,1.6461-.5637.0451-1.3981,0-2.0746-.4059-.0225,0-.0676.0226-.0676.0226.7441.6314,1.6687,1.3981,3.2246,1.353,1.7814-.0451,3.3599-.902,5.7953-3.157,1.1275-1.0373,2.2324-2.1648,3.2021-3.1795l1.8265-1.8491c1.1951.2706,2.2775.3834,3.4501.3608,1.7138-.0451,3.2021-.8569,3.2246-1.804.0226-.699-.5637-1.0598-.902-1.2853-.2931-.1804-1.0598-.6088-2.1197-.6088-1.2853,0-2.6383.5637-4.0139,1.6912l-.902.8118-.3382-.0902-2.5256-.699c.7441-.699,1.3755-1.2853,1.9618-1.804,1.3981-1.2402,2.9315-1.7363,3.8109-1.804.6539-.0451,1.804.0226,2.255.3382.0226,0,.0451-.0451.0451-.0451-1.2402-1.0598-2.3226-1.2177-3.2246-1.2177-.8794,0-2.2775.2706-4.0139,1.601-.699.5412-1.6236,1.4657-2.5707,2.4354l-1.2853-.4059-.3157-.0902-1.353-.4059c.0225,0,.7667-.7216.7667-.7216.902-.902,1.7589-1.7363,2.4354-2.3001,2.4354-2.052,3.9688-2.3226,5.0286-2.3226,1.1726,0,2.0971.248,2.7511.7216.0226,0,.0451-.0451.0451-.0451-1.3755-1.2402-2.3452-1.6236-4.0364-1.6461-1.4657-.0451-3.2472.7892-4.9835,2.3001M5.7953,19.3098c-.7892-.0451-1.1726-.3608-1.1726-.9922,0-.0902.0451-2.0069,4.4649-2.2324.4961-.0226,1.0598-.0451,1.9167.0451-.0451,0-.4961.4284-.4961.4284l-.2706.248c-1.0598,1.0147-2.8413,2.6158-4.4423,2.503M23.6774,17.7539c1.2628-.8569,2.3226-1.3079,2.9766-1.2853.3833.0226.8569.1353.8569.6088,0,.4961-.4735.902-1.3981,1.2402-.8118.2931-2.052.3608-3.405.2029.3833-.3382.699-.5863.9696-.7667"/><path class="cls-1" d="M42.6193,20.8714c.0226,1.6461,1.5559,2.0746,2.954,2.0746,1.4432,0,2.4805-.5637,2.4805-1.5559,0-.8343-.6539-1.1726-1.7138-1.353l-2.0746-.3382c-1.0824-.1804-2.7285-.6088-2.7285-2.4128,0-1.6687,1.3304-2.7962,3.6756-2.7962,1.8265,0,3.7884.6765,3.9011,2.8864h-1.353c-.1127-.7216-.5186-1.6912-2.7285-1.6912-.9922,0-2.1422.4284-2.1422,1.5108,0,.5637.3608,1.0147,1.5108,1.2177l2.255.3834c.7216.1353,2.7736.4735,2.7736,2.3452,0,2.3452-2.0971,2.9991-3.9462,2.9991-2.0746,0-4.2168-.7216-4.2168-3.2472"/><polyline class="cls-1" points="57.2316 19.4282 55.5629 20.9165 55.5629 23.8931 54.2099 23.8931 54.2099 14.7153 55.5629 14.7153 55.5629 19.338 60.7043 14.7153 62.621 14.7153 58.2689 18.5262 62.869 23.8931 60.9974 23.8931"/><polyline class="cls-1" points="73.4224 14.7153 75.0685 14.7153 71.0321 20.0596 71.0321 23.8931 69.6565 23.8931 69.6565 20.1272 65.6427 14.7153 67.379 14.7153 70.3781 18.9095"/><polyline class="cls-1" points="81.6305 15.9104 78.1579 15.9104 78.1579 14.7153 86.4562 14.7153 86.4562 15.9104 82.9835 15.9104 82.9835 23.8931 81.6305 23.8931"/><polyline class="cls-1" points="90.8083 14.7153 98.1821 14.7153 98.1821 15.9104 92.1613 15.9104 92.1613 18.5713 98.0017 18.5713 98.0017 19.7439 92.1613 19.7439 92.1613 22.7205 98.3174 22.7205 98.3174 23.8931 90.8083 23.8931"/><path class="cls-1" d="M109.1414,21.2322h-4.4874l-1.1726,2.6609h-1.4657l4.1492-9.1778h1.5559l4.1492,9.1778h-1.5559M106.8638,15.9781l-1.7138,4.059h3.4727l-1.7589-4.059Z"/><polyline class="cls-1" points="124.7008 14.7153 126.595 14.7153 126.595 23.8931 125.2194 23.8931 125.2194 16.2938 125.1969 16.2938 121.634 23.8931 120.4163 23.8931 116.8534 16.4516 116.8309 16.4516 116.8309 23.8931 115.4779 23.8931 115.4779 14.7153 117.3946 14.7153 121.0252 22.3371"/><path class="cls-1" d="M24.1058,2.7807l-.0902.1578c5.7051,3.157,9.2229,9.5386,8.3886,16.3938-1.1049,9.0425-9.3131,15.4692-18.333,14.3643-6.8101-.8343-12.1544-5.7051-13.8907-11.9514l-.1804.0226c1.5108,6.9003,7.216,12.425,14.6349,13.327,9.3582,1.1275,17.882-5.5247,19.0095-14.9055.902-7.4189-3.1344-14.3192-9.5386-17.4085"/><path class="cls-1" d="M128.9176,14.6476c.5863,0,1.0824.4735,1.0824,1.0824,0,.5863-.4735,1.0824-1.0824,1.0824-.5863,0-1.0824-.4735-1.0824-1.0824s.4961-1.0824,1.0824-1.0824M128.9176,16.5644c.4961,0,.8343-.3608.8343-.8343s-.3382-.8343-.8343-.8343-.8343.3608-.8343.8343c0,.451.3382.8343.8343.8343M128.4892,15.1212h.451c.2931,0,.4735.0902.4735.3608,0,.2255-.1353.3157-.3157.3157l.3157.5186h-.2706l-.3157-.5186h-.1353v.5186h-.2255v-1.1951h.0226ZM128.9176,15.6173c.1353,0,.248-.0226.248-.1804,0-.1353-.1353-.1579-.248-.1579h-.203v.3382h.203Z"/></svg>