<svg width="108" height="15" viewBox="0 0 108 15" fill="none" xmlns="http://www.w3.org/2000/svg"><path d="M7.438 10.024c0-.468.252-.54.684-.288.792.432 1.656.9 1.656.9.036-.252.252-.468.72-.36.432.108.936.216.936.216s-.252-.612-.396-.864c-.216-.504 0-.72.216-.792 0 0-.288-.216-.504-.36-.432-.288-.324-.612.072-.792.576-.252 1.296-.576 1.296-.576a.618.618 0 0 1-.245-.842c.021-.036.043-.065.065-.094.288-.432.72-1.008.72-1.008h-1.296a.582.582 0 0 1-.584-.569v-.079s-.756.54-1.296.9c-.468.324-.864 0-.792-.54.108-.828.216-1.757.216-1.757a.647.647 0 0 1-.964-.289c-.36-.61-.756-1.439-.756-1.439 0 .001-.36.793-.684 1.477a.653.653 0 0 1-.965.288s.108.936.216 1.757c.072.54-.36.828-.792.54-.54-.36-1.295-.9-1.295-.9a.57.57 0 0 1-.497.64H1.793s.432.613.72 1.01a.647.647 0 0 1-.137.906c-.014.007-.029.022-.043.03 0 0 .72.323 1.296.575.43.18.539.468.07.792-.215.144-.503.36-.503.36.216.072.432.288.216.792-.108.252-.396.864-.396.864s.504-.107.936-.215c.468-.108.72.108.72.36 0 0 .828-.468 1.613-.9.432-.252.684-.144.684.288v1.08a3.39 3.39 0 0 1-.36 1.72A6.124 6.124 0 0 1 .972 6.857 6.16 6.16 0 0 1 7.186.794a6.11 6.11 0 0 1 6.213 6.005v.027a6.076 6.076 0 0 1-5.53 5.998v.828a6.98 6.98 0 0 0 6.501-6.826c.03-3.772-3.203-6.825-7.184-6.825A7.033 7.033 0 0 0 0 6.863a6.912 6.912 0 0 0 5.818 6.718c.46.023.9.21 1.224.54.33-.892.475-1.85.432-2.8v-1.296H7.43h.008z" fill="#D82F2E"/><path d="M36.49 10.528v-7.33h3.556c1.901 0 2.765.792 2.801 1.83a1.67 1.67 0 0 1-.396 1.295 2.622 2.622 0 0 1-1.079.792l2.694 3.413h-2.009l-2.369-3.017h-1.62v3.018H36.49zm1.62-4.025h.72c1.972 0 2.368-.324 2.368-1.296s-.864-1.08-2.152-1.08h-.972v2.37h.036v.006z" fill="black"/><path d="m20.434 10.528 3.196-7.33h1.937l3.16 7.33h-1.972l-.864-1.973h-3.376l-.864 1.973h-1.216zm5.061-2.945-1.26-2.909-1.296 2.91h2.555z" fill="black"/><path d="M32.753 3.198h-1.72v7.33h1.72v-7.33z" fill="black"/><path d="M56.39 10.276a8.428 8.428 0 0 1-3.016.468A5.05 5.05 0 0 1 49.997 9.7a3.508 3.508 0 0 1-1.224-2.873 3.508 3.508 0 0 1 1.224-2.872 5.294 5.294 0 0 1 3.485-1.008c.964 0 1.93.1 2.872.288v1.188a10.56 10.56 0 0 0-2.8-.468 3.045 3.045 0 0 0-2.153.72 2.835 2.835 0 0 0-.755 2.116 2.557 2.557 0 0 0 .828 2.082c.626.533 1.44.807 2.26.756.922 0 1.837-.187 2.693-.54v1.188h-.036z" fill="black"/><path d="m58.471 10.528 3.198-7.33h1.937l3.16 7.33h-1.972l-.864-1.973H60.55l-.864 1.973H58.47zm5.063-2.945-1.26-2.909-1.296 2.91h2.556z" fill="black"/><path d="m79.625 10.528 3.197-7.33h1.936l3.161 7.33h-1.974l-.864-1.973h-3.376l-.864 1.973h-1.217zm5.061-2.945-1.26-2.909-1.296 2.91h2.556z" fill="black"/><path d="m99.706 10.528 3.196-7.33h1.937l3.16 7.33h-1.973l-.864-1.973h-3.377l-.864 1.973h-1.216zm5.06-2.945-1.26-2.909-1.295 2.91h2.557z" fill="black"/><path d="M69.214 10.528v-7.33h1.972l4.594 5.206V3.198h1.404v7.33H75.39L70.62 5.034v5.494h-1.404z" fill="black"/><path d="M90.367 10.528v-7.33h3.557a4.364 4.364 0 0 1 2.909.9 3.265 3.265 0 0 1 1.008 2.585 3.554 3.554 0 0 1-1.08 2.801 4.193 4.193 0 0 1-3.016 1.008h-3.377v.036zm2.952-1.044a2.83 2.83 0 0 0 2.008-.648 2.965 2.965 0 0 0 .684-2.009 2.853 2.853 0 0 0-.54-1.757 2.23 2.23 0 0 0-.864-.684 5.09 5.09 0 0 0-1.512-.18h-1.044v5.278h1.267z" fill="black"/></svg>