<svg width="93" height="32" viewBox="0 0 93 32" fill="none" xmlns="http://www.w3.org/2000/svg"><path d="M85.892 14.932c-.125 0-.25.017-.373.05a93.943 93.943 0 0 1-15.442 3.744c-.332.042-.25.201.149.226 3.017.352 6.058.52 9.1.503 2.18-.067 3.813.235 5.644-1.734 1.684-1.766 1.717-2.78.922-2.788zm-68.064 1.407-2.685.803 1.119.804v9.097l-1.12.779h3.78l-1.094-.78v-4.799l1.02-.729a3.584 3.584 0 0 1 2.287-.854c.962.001 1.268.604 1.268.956v6.207h2.686l-1.095-.78v-5.427c0-1.08-.614-1.91-2.387-1.91a4.708 4.708 0 0 0-2.885 1.03l-.895.704v-5.1zM0 16.665l1.094.804v9.574L0 27.823h8.827v-2.06l-1.566 1.28H2.686v-4.799h3.158l1.243.955v-2.715l-1.243.955H2.685v-3.97h4.401l1.418 1.106v-1.91H0zm27.219.946c-.474 0-.872.277-.872.628 0 .352.398.654.87.654.473 0 .87-.302.87-.653s-.389-.628-.87-.628zm23.81 0c-.48 0-.87.277-.87.628 0 .352.39.654.87.654.482 0 .871-.302.871-.653.001-.351-.388-.628-.86-.628h-.01zm-38.73.628-3.158 2.237h1.566v5.905a1.742 1.742 0 0 0 1.8 1.692h.09a2.396 2.396 0 0 0 2.064-1.03l-.472-.327a1.528 1.528 0 0 1-1.343.653.758.758 0 0 1-.547-.176v-6.709h2.362v-.628H12.3V18.24zm21.773 1.458c-2.801 0-4.75 1.993-4.75 4.146 0 2.153 1.949 4.146 4.75 4.146 2.802 0 4.724-2.002 4.724-4.146 0-2.144-1.897-4.146-4.724-4.138v-.008zm10.89 0c-.944 0-2.42.134-3.157 1.105v-.954l-2.685.803 1.095.779v8.77l-1.094.804h3.63l-.944-.805v-3.34a4.28 4.28 0 0 0 3.158 1.13c2.32 0 3.78-2.22 3.78-4.146.099-2.186-1.584-4.046-3.747-4.138h-.033v-.008zm12.781 0a7.574 7.574 0 0 0-3.157.628v1.76l1.864-1.383c.375-.276.83-.41 1.294-.377.97 0 1.74.545 1.74 1.282v1.432h-2.212c-2.03 0-3.78 1.307-3.78 2.865a2.003 2.003 0 0 0 1.915 2.085h.125c.323 0 .638-.067.944-.176l3.01-1.281v1.281h2.685l-1.118-.779v-5.427c0-1.232-1.12-1.902-3.307-1.902v-.008zm11.04 0a4.63 4.63 0 0 0-2.983 1.055l-.795.679v-1.583l-2.685.803 1.119.779v5.603l-1.12.78h3.804l-1.12-.78v-4.8l.946-.803a3.278 3.278 0 0 1 2.362-.78c1.268 0 1.591.562 1.591.956v6.206h2.686l-1.12-.779v-5.427c0-.73-.473-1.91-2.686-1.91zm-40.695.15-2.686.805 1.094.779v5.603l-1.094.78h3.78l-1.095-.78V19.85zm23.82 0-2.686.805 1.12.779v5.603l-1.12.78h3.805l-1.12-.78V19.85zm-17.829.478c2.098 0 2.836 1.843 2.836 3.518 0 1.675-.73 3.493-2.835 3.493-2.104 0-2.833-1.826-2.833-3.493s.754-3.51 2.834-3.518zm10.27.15c1.998 0 2.512 1.885 2.512 3.368s-.514 3.342-2.511 3.342a2.81 2.81 0 0 1-2.536-1.281v-4.147a2.785 2.785 0 0 1 2.537-1.281zm13.403 3.192h1.74v2.086l-2.213.955c-.298.15-.613.258-.944.325a1.104 1.104 0 0 1-1.128-1.097c0-.059 0-.125.009-.184 0-1.273 1.02-2.077 2.536-2.077v-.009z" fill="#C8332F"/><path d="M68.552 18.416c5.064-1.306 17.753-8.192 19.635-9.414.928-.587 1.956-.235.315 2.462-1.12 1.659-1.882 2.622-4.865 3.535a85.222 85.222 0 0 1-14.96 3.668c-.398.033-.523-.118-.125-.243" fill="#FFCB08"/><path d="M69.058 18.056c4.418-1.566 14.049-6.692 17.33-8.728 2.363-1.449 4.186-2.52 4.9-4.347C92.811.82 91.643-.873 90.192.434c-1.848 1.817-10.55 11.048-21.69 17.53-.166.102-.19.32.555.093z" fill="#5E8F4D"/></svg>