<svg width="108" height="16" viewBox="0 0 108 16" fill="none" xmlns="http://www.w3.org/2000/svg"><path d="M3.528 14.634c0 .711-.778 1.274-1.778 1.274-.98 0-1.75-.563-1.75-1.274 0-.71.778-1.267 1.778-1.267.93-.028 1.75.564 1.75 1.267zm1.224-3.026c0 .584-.727 1.048-1.548 1.077-.828 0-1.548-.465-1.548-1.077 0-.613.727-1.056 1.548-1.056.85-.05 1.555.464 1.555 1.056m1.022-2.542c0 .465-.576.831-1.325.831-.75 0-1.325-.394-1.325-.83 0-.465.576-.831 1.325-.831.698-.021 1.325.366 1.325.83zm2.628-6.87c0 .148-.324.317-.728.317-.403 0-.727-.148-.727-.317s.324-.317.727-.317c.447-.022.728.12.728.316zM9.209.218c-.001.148-.203.218-.498.218-.324 0-.526-.098-.526-.218S8.388 0 8.683 0c.295 0 .526.099.526.218zm-.354.95c0 .148-.274.296-.598.296s-.597-.148-.597-.296c0-.147.274-.295.577-.295.353.028.626.148.626.295M6.631 6.864c.001.394-.474.711-1.122.711-.598 0-1.123-.317-1.123-.71 0-.395.475-.712 1.123-.712.598.05 1.123.345 1.123.711zm.7-1.858c0 .317-.447.514-.972.514-.526-.001-.95-.22-.95-.515 0-.296.446-.514.971-.514.546-.048.95.22.95.515zm.302 9.411c0 .634-.727 1.126-1.577 1.126s-1.577-.485-1.577-1.126c0-.64.728-1.126 1.577-1.126.85 0 1.577.514 1.577 1.126zm3.5-.929c0 .514-.649 1-1.426 1-.778 0-1.426-.437-1.426-1 0-.563.648-1 1.426-1 .748-.02 1.425.465 1.425 1zm1.8-1.957c0 .437-.526.781-1.174.781-.648.001-1.152-.343-1.152-.78 0-.436.525-.781 1.152-.781.626-.022 1.173.344 1.173.78zm-1.75-3.45c0 .297-.404.515-.828.515-.425 0-.828-.218-.828-.514 0-.295.403-.513.828-.513.424 0 .828.218.828.514zM7.956 3.464c0 .218-.353.437-.8.437-.446 0-.798-.17-.798-.437 0-.267.352-.436.799-.436.475 0 .8.197.8.436zm4.68 6.09c0 .344-.446.633-1 .633-.555 0-1.002-.296-1.002-.634s.447-.633 1.001-.633c.526-.022 1 .266 1 .632z" fill="#EE452A"/><path d="M21.102 8.158c-.476.021-.95.113-1.397.267V4.976H18.18v9.39a7.22 7.22 0 0 0 1.827.148 4.48 4.48 0 0 0 2.83-.76 2.94 2.94 0 0 0 1.152-2.57 2.88 2.88 0 0 0-.729-2.104 2.585 2.585 0 0 0-2.151-.93l-.008.008zm-.778 5.18c-.194 0-.389-.013-.576-.049V9.6c.303-.105.627-.154.95-.147a1.73 1.73 0 0 1 1.253.437c.383.4.57.943.527 1.492-.05 1.295-.749 1.957-2.146 1.957h-.006zm5.3-4.568v5.723l1.547.021V9.721a4.02 4.02 0 0 1 1.326-.218c.36.022.72.07 1.072.148V8.376a3.996 3.996 0 0 0-1.224-.148 6.275 6.275 0 0 0-2.728.535l.007.007zm8.847 4.4a3.867 3.867 0 0 1-1.021.12c-.347 0-.692-.07-1.002-.219a1.305 1.305 0 0 1-.324-1.047V8.306h-1.548l.05 3.738c0 .38.037.76.123 1.126.085.295.25.563.474.781a3.154 3.154 0 0 0 2.124.564 17.398 17.398 0 0 0 2.7-.295V8.305H34.5v4.864h-.029zm5.725-2.393a4.703 4.703 0 0 1-.85-.465.427.427 0 0 1-.173-.415c0-.416.353-.585 1.023-.585.54.014 1.073.176 1.526.465V8.482a4.578 4.578 0 0 0-1.626-.317 2.83 2.83 0 0 0-1.649.436c-.475.311-.756.84-.749 1.395 0 .352.109.697.325.979.317.38.728.668 1.203.83l.626.296a.794.794 0 0 1 .597.71c0 .437-.353.634-1.023.634a3.222 3.222 0 0 1-1.699-.514v1.366c.533.275 1.13.394 1.728.345.612.036 1.21-.119 1.728-.435a1.66 1.66 0 0 0 .779-1.443c-.001-.416-.145-.817-.426-1.127a7.868 7.868 0 0 0-1.332-.851l-.007-.007zm5.479 0a4.703 4.703 0 0 1-.85-.465.465.465 0 0 1-.173-.415c.001-.416.354-.585 1.023-.585.54.014 1.073.176 1.527.465V8.482a4.578 4.578 0 0 0-1.627-.317 2.83 2.83 0 0 0-1.649.436c-.475.311-.756.84-.749 1.395 0 .352.108.697.324.979.316.38.726.668 1.202.83l.597.296a.794.794 0 0 1 .597.71c0 .437-.353.634-1.023.634a3.34 3.34 0 0 1-1.728-.514v1.366a3.133 3.133 0 0 0 1.75.345c.612.036 1.21-.119 1.728-.435a1.66 1.66 0 0 0 .777-1.443c.001-.416-.143-.817-.423-1.127a4.926 4.926 0 0 0-1.304-.851v-.007zm7.552-2.204c-.46-.295-1-.45-1.548-.436a3.14 3.14 0 0 0-2.124.81 3.31 3.31 0 0 0-.972 2.52 3.11 3.11 0 0 0 .749 2.224 3.097 3.097 0 0 0 2.477.951 4.31 4.31 0 0 0 2.276-.633v-1.302c-.59.444-1.31.683-2.052.683-.935.127-1.8-.507-1.936-1.422-.014-.098-.022-.19-.014-.288h4.326l.03-.022a5.55 5.55 0 0 0-.303-2.055 2.833 2.833 0 0 0-.9-1.027h-.007zm-3.074 2.028c.028-.351.201-.675.475-.9a1.25 1.25 0 0 1 1-.416c.778 0 1.203.437 1.275 1.295l-2.75.02zm5.752-5.624h1.548v9.51h-1.548v-9.51zm5.824 5.793a4.696 4.696 0 0 1-.85-.465.492.492 0 0 1-.172-.415c0-.416.324-.585 1.022-.585.54.014 1.073.176 1.527.465V8.475a4.43 4.43 0 0 0-1.627-.317 2.83 2.83 0 0 0-1.65.436c-.474.31-.755.838-.748 1.394 0 .352.108.697.324.979.317.38.727.668 1.202.83l.627.296a.794.794 0 0 1 .597.71c0 .437-.352.634-1.022.634a3.342 3.342 0 0 1-1.728-.514v1.366a3.978 3.978 0 0 0 3.449-.1 1.66 1.66 0 0 0 .776-1.442c0-.416-.144-.817-.424-1.127a5.53 5.53 0 0 0-1.304-.858v.007zm8.33-2.59c-.864 0-1.72.217-2.476.633v1.295a4.086 4.086 0 0 1 2.123-.711 2 2 0 0 1 .699.148c.165.218.237.492.201.76v.197h-.15a8.67 8.67 0 0 0-2.154.486 1.797 1.797 0 0 0-1.071 1.788c-.037.464.128.922.445 1.274.482.359 1.094.528 1.7.464.698 0 1.547-.098 2.649-.197v-3.864a5.583 5.583 0 0 0-.173-1.464 1.914 1.914 0 0 0-1.8-.81h.008zm.576 5.13a5.073 5.073 0 0 1-1.173.12c-.525 0-.827-.218-.827-.71 0-.29.15-.557.403-.712a4.608 4.608 0 0 1 1.627-.345v1.64h-.029v.008zm3.276-7.778h1.577v1.591H73.91v-1.59zm.05 2.81h1.548V14.5H73.96V8.34zm3.5.414v5.723l1.547.02V9.707a4.02 4.02 0 0 1 1.325-.219c.36.021.72.07 1.073.148V8.362a3.997 3.997 0 0 0-1.224-.148 6.378 6.378 0 0 0-2.728.535l.007.006zm5.176-3.787h1.548v9.51h-1.548V4.968zm3.499.562h1.576v1.591h-1.568v-1.59h-.007zm.05 2.81h1.548V14.5h-1.548V8.34zm6.35-.17c-.972.007-1.944.155-2.873.436v5.864h1.548V9.58a3.98 3.98 0 0 1 1.152-.148c.331 0 .655.07.95.218.238.268.36.62.325.979v3.835h1.547v-3.984a2.288 2.288 0 0 0-.504-1.688 2.92 2.92 0 0 0-2.152-.634l.007.014zm8.776.394c-.46-.295-1-.45-1.547-.436a3.14 3.14 0 0 0-2.124.81 3.31 3.31 0 0 0-.972 2.52 3.11 3.11 0 0 0 .748 2.224 3.096 3.096 0 0 0 2.477.95c.806 0 1.59-.211 2.275-.634v-1.295c-.59.444-1.31.683-2.052.683-.936.127-1.8-.507-1.937-1.422-.015-.098-.022-.19-.015-.288h4.327l.03-.022a5.555 5.555 0 0 0-.304-2.055 2.6 2.6 0 0 0-.9-1.027l-.007-.007zm-3.073 2.028a1.43 1.43 0 0 1 .475-.901c.252-.275.62-.43 1-.416.778 0 1.203.437 1.275 1.295l-2.75.022zm9.302 1a4.538 4.538 0 0 0-1.276-.81 4.695 4.695 0 0 1-.85-.465.49.49 0 0 1-.172-.416c0-.416.324-.585 1-.585a3 3 0 0 1 1.527.464V8.49a4.426 4.426 0 0 0-1.628-.318 2.834 2.834 0 0 0-1.65.436 1.64 1.64 0 0 0-.747 1.394c0 .352.108.697.324.979.323.374.733.662 1.2.831l.627.297c.33.084.576.373.598.71 0 .437-.353.634-1.023.634a3.288 3.288 0 0 1-1.7-.512v1.365a3.136 3.136 0 0 0 1.75.345 3.102 3.102 0 0 0 1.73-.436c.48-.324.762-.866.747-1.443a1.877 1.877 0 0 0-.454-1.17l-.007-.007z" fill="#011F65"/></svg>