<svg width="108" height="19" viewBox="0 0 108 19" fill="none" xmlns="http://www.w3.org/2000/svg"><path d="M6.236 9.5c.71-2.74-.1-5.613-2.037-7.135C1.561 4.081.041 7.308.59 10.671a8.278 8.278 0 0 0 1.126 3.03c2.063-.59 3.875-1.708 4.52-4.2zm3.56 7.912c4.353-.752 7.289-4.988 6.558-9.46-.61-3.723-3.562-6.438-7.044-6.812a7.845 7.845 0 0 0-2.161.07c-.87.15-1.679.44-2.416.843 3.837 1.338 5.9 3.372 6.042 5.454.07 1.287-.511 2.217-1.276 2.975l5.425-.39c.153-.01.202.174.015.23L2 14.131c1.316 1.865 3.363 3.105 5.634 3.349a7.777 7.777 0 0 0 2.162-.07M9.359.648c4.26.456 7.583 4.159 7.585 8.66 0 4.808-3.79 8.71-8.47 8.711C3.794 18.02 0 14.122 0 9.311 0 4.503 3.79.6 8.47.6c.3 0 .596.017.889.048z" fill="white"/><path d="M.59 10.671a8.278 8.278 0 0 0 1.126 3.03c2.063-.59 3.875-1.708 4.52-4.2.71-2.74-.1-5.613-2.037-7.135C1.561 4.081.041 7.308.59 10.671zM16.355 7.95c.73 4.475-2.203 8.71-6.558 9.462a7.777 7.777 0 0 1-2.162.07C5.363 17.238 3.316 15.998 2 14.133l12.94-3.814c.185-.055.139-.239-.015-.228l-5.425.389c.765-.76 1.346-1.69 1.276-2.976-.144-2.083-2.207-4.116-6.042-5.454a7.857 7.857 0 0 1 2.415-.843 7.844 7.844 0 0 1 2.16-.07c3.482.374 6.436 3.088 7.044 6.811z" fill="#C70A0C"/><path d="M60.83 9.861h-2.794v2.865h-1.534v-6.82h1.534v2.718h2.794V5.905h1.544v6.821H60.83V9.861z" fill="black"/><path d="M27.785 5.905v4.27c0 .472.067.88.2 1.213.132.33.324.604.571.814.25.212.55.368.892.466.349.1.74.15 1.168.15.427 0 .816-.05 1.157-.15.335-.096.62-.252.85-.463.23-.211.41-.484.535-.815.127-.331.19-.74.19-1.215v-4.27h-1.433v4.224c0 .43-.104.776-.31 1.032-.21.259-.542.39-.989.39-.447 0-.77-.131-.983-.39-.209-.254-.316-.602-.316-1.035V5.903h-1.533l.001.002z" fill="black"/><path d="M23.364 12.726V7.178H21.56V5.905h5.15v.61a.654.654 0 0 1-.644.663h-1.168v5.548h-1.534z" fill="black"/><path d="M48.008 5.903h1.534v6.822h-1.534V5.903z" fill="black"/><path d="m42.9 9.544 2.012 2.663c.249.33.626.52 1.031.52h1.222l-2.806-3.67-.042-.055.041-.053 2.306-3.05H45.07l-2.116 2.94-.053.07V5.9h-1.533v6.821H42.9V9.543v.002z" fill="black"/><path d="M36.3 9.026h.896c.322 0 .567-.091.73-.27.16-.176.24-.406.24-.682 0-.277-.08-.517-.236-.694-.159-.18-.405-.27-.734-.27H36.3v1.916zm3.067 3.697c-.454 0-.883-.247-1.117-.647l-1.193-2.024h-.756v2.673H34.77v-6.82H37.5c.704 0 1.253.189 1.635.56.38.37.574.878.574 1.507 0 .321-.084.645-.248.965-.162.313-.447.57-.85.763l-.09.043 1.862 2.982h-1.017v-.002z" fill="black"/><path d="M50.799 12.435v-1.308c.486.232 1.115.462 1.766.462.748 0 1.128-.265 1.128-.77 0-.593-.508-.658-1.528-1.11-.695-.319-1.356-.813-1.356-1.956 0-1.33.987-1.955 2.354-1.955.726-.001 1.345.174 1.69.306V7.38a3.974 3.974 0 0 0-1.583-.363c-.672 0-.986.252-.986.691 0 .462.38.606 1.063.868.878.45 1.898.649 1.898 2.188 0 1.33-1.03 2.055-2.407 2.055-.846 0-1.517-.155-2.038-.385" fill="black"/><path d="M98.166 5.903h4.156v.62a.647.647 0 0 1-.638.655H99.7v1.467h2.228v1.14H99.7v1.668h2.622v1.273h-4.156V5.903z" fill="black"/><path d="M83.005 12.725V5.903h.745a.8.8 0 0 1 .788.81v4.782h2.446v1.228h-3.98l.001.002z" fill="black"/><path d="M73.513 12.723V5.907h1.534v6.816h-1.534z" fill="black"/><path d="M77.986 9.026h.895c.323 0 .569-.091.73-.27.16-.176.24-.406.24-.682 0-.277-.078-.517-.235-.694-.158-.18-.405-.27-.734-.27h-.894v1.916zm3.066 3.697c-.453 0-.882-.247-1.118-.647l-1.193-2.024h-.755v2.67h-1.533V5.904h2.733c.702 0 1.252.189 1.634.56.38.37.573.878.573 1.508 0 .321-.083.646-.247.965-.16.314-.447.571-.851.763l-.089.043 1.861 2.981h-1.016l.002.003z" fill="black"/><path d="m68.242 10.239.603-1.726c.133-.387.267-.797.357-1.1h.022c.078.313.212.7.345 1.1l.578 1.725h-1.906zM70.137 5.9h-1.761l-2.502 6.823h1.105a.65.65 0 0 0 .615-.458l.257-.801h2.692l.394 1.257h1.66l-2.46-6.82-.001.001z" fill="black"/><path d="M103.554 12.435v-1.308c.487.23 1.116.462 1.767.462.75 0 1.13-.265 1.13-.77 0-.593-.51-.658-1.53-1.11-.694-.319-1.355-.813-1.355-1.956 0-1.33.987-1.955 2.354-1.955a4.91 4.91 0 0 1 1.69.306V7.38a3.977 3.977 0 0 0-1.583-.362c-.672 0-.986.253-.986.692 0 .461.38.604 1.062.868.878.45 1.898.648 1.898 2.187 0 1.33-1.03 2.056-2.407 2.056-.846 0-1.52-.154-2.038-.384" fill="black"/><path d="M90.91 5.905h.95a1.3 1.3 0 0 1 1.11.633l1.85 3.056c.21.34.452.787.595 1.104h.034a16.636 16.636 0 0 1-.035-1.04V5.904h1.344v6.82h-1.682l-2.252-3.69c-.21-.34-.429-.745-.584-1.05h-.021c.012.295.034.646.034.974v3.766H90.91V5.905z" fill="black"/><path d="M87.973 12.723V5.907h1.534v6.816h-1.534z" fill="black"/></svg>